<svg version="1.1" xmlns="http://www.w3.org/2000/svg" x="0" y="0" viewBox="0 0 496 496" xml:space="preserve">
  <linearGradient id="a" gradientUnits="userSpaceOnUse" x1="248" y1="496" x2="248" y2="0">
    <stop offset="0" stop-color="#0030c4"/>
    <stop offset="1" stop-color="#11c5fc"/>
  </linearGradient>
  <circle cx="248" cy="248" r="248" fill="url(#a)"/>
  <linearGradient id="b" gradientUnits="userSpaceOnUse" x1="248" y1="476" x2="248" y2="20">
    <stop offset="0" stop-color="#1665f0"/>
    <stop offset="1" stop-color="#13c6fc"/>
  </linearGradient>
  <circle cx="248" cy="248" r="228" fill="url(#b)"/>
  <linearGradient id="c" gradientUnits="userSpaceOnUse" x1="248.5" y1="84.477" x2="248.5" y2="523.588">
    <stop offset="0" stop-color="#eee"/>
    <stop offset="1" stop-color="#d0d0cd"/>
  </linearGradient>
  <path d="M247.9 110.4l9.1-15.7c5.6-9.8 18.1-13.1 27.9-7.5s13.1 18.1 7.5 27.9l-87.5 151.5h63.3c20.5 0 32 24.1 23.1 40.8H105.8c-11.3 0-20.4-9.1-20.4-20.4s9.1-20.4 20.4-20.4h52l66.6-115.4-20.8-36.1c-5.6-9.8-2.3-22.2 7.5-27.9 9.8-5.6 22.2-2.3 27.9 7.5l8.9 15.7zm-78.7 218l-19.6 34c-5.6 9.8-18.1 13.1-27.9 7.5s-13.1-18.1-7.5-27.9l14.6-25.2c16.4-5.1 29.8-1.2 40.4 11.6zm168.9-61.7h53.1c11.3 0 20.4 9.1 20.4 20.4s-9.1 20.4-20.4 20.4h-29.5l19.9 34.5c5.6 9.8 2.3 22.2-7.5 27.9-9.8 5.6-22.2 2.3-27.9-7.5-33.5-58.1-58.7-101.6-75.4-130.6-17.1-29.5-4.9-59.1 7.2-69.1 13.4 23 33.4 57.7 60.1 104z" fill="url(#c)"/>
</svg>
